<svg width="21" height="22" viewBox="0 0 21 22" fill="none" xmlns="http://www.w3.org/2000/svg">
<path d="M12.9413 19.9616H8.05894C3.64041 19.9616 1.75256 17.9786 1.75256 13.3372V8.20869C1.75256 3.56736 3.64041 1.58432 8.05894 1.58432H12.9413C17.3598 1.58432 19.2477 3.56736 19.2477 8.20869V13.3372C19.2477 17.9786 17.3598 19.9616 12.9413 19.9616ZM8.05894 2.86646C4.30766 2.86646 2.97315 4.26826 2.97315 8.20869V13.3372C2.97315 17.2777 4.30766 18.6795 8.05894 18.6795H12.9413C16.6926 18.6795 18.0271 17.2777 18.0271 13.3372V8.20869C18.0271 4.26826 16.6926 2.86646 12.9413 2.86646H8.05894Z" fill="white"/>
<path d="M10.5006 11.6958C10.3948 11.6958 10.289 11.6702 10.1914 11.6104L5.87863 8.9948C5.58569 8.8153 5.48803 8.42211 5.65891 8.12294C5.82979 7.81523 6.20412 7.71266 6.48893 7.89216L10.4924 10.3282L14.4716 7.90925C14.7645 7.72975 15.1388 7.84087 15.3016 8.14004C15.4643 8.4392 15.3667 8.84094 15.0819 9.01189L10.8017 11.6104C10.7122 11.6616 10.6064 11.6958 10.5006 11.6958Z" fill="white"/>
<path d="M10.5001 16.3461C10.1664 16.3461 9.88977 16.0555 9.88977 15.705V11.0551C9.88977 10.7047 10.1664 10.4141 10.5001 10.4141C10.8337 10.4141 11.1104 10.7047 11.1104 11.0551V15.705C11.1104 16.0555 10.8337 16.3461 10.5001 16.3461Z" fill="white"/>
<path d="M10.5002 16.5424C10.0282 16.5424 9.56451 16.4313 9.19019 16.2176L6.58623 14.6961C5.80505 14.2431 5.20288 13.1576 5.20288 12.2173V9.3197C5.20288 8.38803 5.81319 7.30248 6.58623 6.84091L9.19019 5.31944C9.93882 4.88351 11.0617 4.88351 11.8103 5.31944L14.4142 6.84091C15.1954 7.29393 15.7976 8.37948 15.7976 9.3197V12.2173C15.7976 13.149 15.1873 14.2346 14.4142 14.6961L11.8103 16.2176C11.436 16.4398 10.9722 16.5424 10.5002 16.5424ZM10.5002 6.28531C10.2317 6.28531 9.97129 6.3366 9.78413 6.44772L7.18026 7.96919C6.78153 8.19997 6.42347 8.84959 6.42347 9.3197V12.2173C6.42347 12.696 6.78153 13.3371 7.18026 13.5679L9.78413 15.0893C10.1584 15.3116 10.842 15.3116 11.2163 15.0893L13.8202 13.5679C14.2189 13.3371 14.5771 12.6875 14.5771 12.2173V9.3197C14.5771 8.84105 14.2189 8.19997 13.8202 7.96919L11.2163 6.44772C11.0291 6.3366 10.7687 6.28531 10.5002 6.28531Z" fill="white"/>
</svg>
